<mxfile host="app.diagrams.net" modified="2023-01-30T08:15:44.839Z" agent="5.0 (Windows)" etag="e51c-JFgoxTVPqWbi71F" version="20.8.13" type="github">
  <diagram name="第 1 页" id="8jF92QRsQ-L996Q2_0DO">
    <mxGraphModel dx="1360" dy="768" grid="1" gridSize="10" guides="1" tooltips="1" connect="1" arrows="1" fold="1" page="1" pageScale="1" pageWidth="827" pageHeight="1169" math="0" shadow="0">
      <root>
        <mxCell id="0" />
        <mxCell id="1" parent="0" />
        <mxCell id="eWEdND70MQA-wv19zwY5-1" value="&lt;div align=&quot;left&quot;&gt;&lt;ol&gt;&lt;li&gt;全文本&lt;br&gt;&lt;/li&gt;&lt;li&gt;&lt;div&gt;键值对&lt;/div&gt;&lt;/li&gt;&lt;li&gt;缩进形式预声明&lt;/li&gt;&lt;li&gt;冒号分隔键和值&lt;/li&gt;&lt;li&gt;忽略分隔符左右空格或制表符&lt;br&gt;&lt;/li&gt;&lt;li&gt;换行表示键值对结束&lt;br&gt;&lt;/li&gt;&lt;li&gt;&lt;div&gt;行头缩进关系表示层级&lt;/div&gt;&lt;/li&gt;&lt;li&gt;无分隔符表示值&lt;br&gt;&lt;/li&gt;&lt;li&gt;空行分隔组&lt;br&gt;&lt;/li&gt;&lt;li&gt;&lt;br&gt;&lt;/li&gt;&lt;/ol&gt;&lt;/div&gt;" style="text;html=1;align=left;verticalAlign=middle;resizable=0;points=[];autosize=1;strokeColor=none;fillColor=none;" parent="1" vertex="1">
          <mxGeometry x="40" y="10" width="220" height="180" as="geometry" />
        </mxCell>
        <mxCell id="eWEdND70MQA-wv19zwY5-2" value="&lt;div&gt;&lt;span style=&quot;&quot;&gt;对象:&lt;br&gt;&lt;/span&gt;&lt;/div&gt;&lt;div&gt;&lt;span style=&quot;&quot;&gt;&lt;span style=&quot;&quot;&gt;	&lt;/span&gt;&lt;/span&gt;键: 值&lt;/div&gt;&lt;div&gt;&lt;span style=&quot;&quot;&gt;	&lt;/span&gt;&lt;span style=&quot;&quot;&gt;&lt;/span&gt;测 试 一 下 &lt;span style=&quot;&quot;&gt; &lt;/span&gt;: 我 是 谁&lt;/div&gt;&lt;div&gt;&lt;span style=&quot;&quot;&gt;	&lt;/span&gt;数组：&lt;/div&gt;&lt;div&gt;&lt;span style=&quot;&quot;&gt;	&lt;/span&gt;&lt;span style=&quot;&quot;&gt;	&lt;/span&gt;数据1&lt;/div&gt;&lt;div&gt;&lt;span style=&quot;&quot;&gt;	&lt;/span&gt;	数据2&lt;/div&gt;&lt;div&gt;&lt;span style=&quot;&quot;&gt;	&lt;/span&gt;&lt;span style=&quot;&quot;&gt;	&lt;/span&gt;数据3&lt;/div&gt;&lt;div&gt;&lt;span style=&quot;&quot;&gt;	&lt;/span&gt;&lt;span style=&quot;&quot;&gt;	&lt;/span&gt;数据4&lt;/div&gt;&lt;div&gt;&lt;br&gt;&lt;/div&gt;&lt;div&gt;&lt;span style=&quot;&quot;&gt;	&lt;/span&gt;&lt;span style=&quot;&quot;&gt;	&lt;/span&gt;&lt;span style=&quot;&quot;&gt;	&lt;/span&gt;&lt;span style=&quot;&quot;&gt;	&lt;/span&gt;参数4&lt;/div&gt;&lt;div&gt;&lt;span style=&quot;&quot;&gt;	&lt;/span&gt;&lt;span style=&quot;&quot;&gt;	&lt;/span&gt;参数3&lt;/div&gt;&lt;div&gt;&lt;span style=&quot;&quot;&gt;	&lt;/span&gt;&lt;span style=&quot;&quot;&gt;	&lt;/span&gt;参数2&lt;/div&gt;&lt;div&gt;&lt;span style=&quot;&quot;&gt;	&lt;/span&gt;&lt;span style=&quot;&quot;&gt;	&lt;/span&gt;参数1&lt;/div&gt;&lt;div&gt;&lt;br&gt;&lt;/div&gt;&lt;div&gt;&lt;span style=&quot;&quot;&gt;	&lt;/span&gt;&lt;br&gt;&lt;/div&gt;&lt;div&gt;&lt;span style=&quot;&quot;&gt; &lt;/span&gt;&lt;br&gt;&lt;/div&gt;&lt;div&gt;&lt;span style=&quot;&quot;&gt; &lt;/span&gt;&lt;br&gt;&lt;/div&gt;&lt;div&gt;&lt;br&gt;&lt;/div&gt;" style="text;html=1;align=left;verticalAlign=middle;resizable=0;points=[];autosize=1;strokeColor=none;fillColor=none;" parent="1" vertex="1">
          <mxGeometry x="380" y="60" width="130" height="270" as="geometry" />
        </mxCell>
        <mxCell id="p68j98JTXO-RYFuw1W3W-4" value="对象" style="text;html=1;align=center;verticalAlign=middle;resizable=0;points=[];autosize=1;strokeColor=none;fillColor=none;fontSize=22;fontStyle=1" vertex="1" parent="1">
          <mxGeometry x="30" y="275" width="70" height="40" as="geometry" />
        </mxCell>
        <mxCell id="p68j98JTXO-RYFuw1W3W-5" value=":" style="text;html=1;align=center;verticalAlign=middle;resizable=0;points=[];autosize=1;strokeColor=none;fillColor=none;fontSize=22;fontStyle=1" vertex="1" parent="1">
          <mxGeometry x="85" y="275" width="30" height="40" as="geometry" />
        </mxCell>
        <mxCell id="p68j98JTXO-RYFuw1W3W-6" value="键 :&amp;nbsp; 值" style="text;html=1;align=center;verticalAlign=middle;resizable=0;points=[];autosize=1;strokeColor=none;fillColor=none;fontSize=22;fontStyle=1" vertex="1" parent="1">
          <mxGeometry x="115" y="315" width="90" height="40" as="geometry" />
        </mxCell>
        <mxCell id="p68j98JTXO-RYFuw1W3W-7" value="" style="endArrow=none;dashed=1;html=1;rounded=0;fontSize=22;" edge="1" parent="1">
          <mxGeometry width="50" height="50" relative="1" as="geometry">
            <mxPoint x="40" y="600" as="sourcePoint" />
            <mxPoint x="40" y="280" as="targetPoint" />
          </mxGeometry>
        </mxCell>
        <mxCell id="p68j98JTXO-RYFuw1W3W-8" value="" style="endArrow=none;dashed=1;html=1;rounded=0;fontSize=22;" edge="1" parent="1">
          <mxGeometry width="50" height="50" relative="1" as="geometry">
            <mxPoint x="120" y="600" as="sourcePoint" />
            <mxPoint x="120" y="280" as="targetPoint" />
          </mxGeometry>
        </mxCell>
        <mxCell id="p68j98JTXO-RYFuw1W3W-9" value="" style="endArrow=none;dashed=1;html=1;rounded=0;fontSize=22;" edge="1" parent="1">
          <mxGeometry width="50" height="50" relative="1" as="geometry">
            <mxPoint x="200" y="600" as="sourcePoint" />
            <mxPoint x="200" y="280" as="targetPoint" />
          </mxGeometry>
        </mxCell>
        <mxCell id="p68j98JTXO-RYFuw1W3W-10" value="数组：" style="text;html=1;align=center;verticalAlign=middle;resizable=0;points=[];autosize=1;strokeColor=none;fillColor=none;fontSize=22;fontStyle=1" vertex="1" parent="1">
          <mxGeometry x="115" y="360" width="90" height="40" as="geometry" />
        </mxCell>
        <mxCell id="p68j98JTXO-RYFuw1W3W-11" value="数据1" style="text;html=1;align=center;verticalAlign=middle;resizable=0;points=[];autosize=1;strokeColor=none;fillColor=none;fontSize=22;" vertex="1" parent="1">
          <mxGeometry x="200" y="400" width="80" height="40" as="geometry" />
        </mxCell>
        <mxCell id="p68j98JTXO-RYFuw1W3W-12" value="数据2" style="text;html=1;align=center;verticalAlign=middle;resizable=0;points=[];autosize=1;strokeColor=none;fillColor=none;fontSize=22;" vertex="1" parent="1">
          <mxGeometry x="200" y="440" width="80" height="40" as="geometry" />
        </mxCell>
        <mxCell id="p68j98JTXO-RYFuw1W3W-13" value="数据3" style="text;html=1;align=center;verticalAlign=middle;resizable=0;points=[];autosize=1;strokeColor=none;fillColor=none;fontSize=22;" vertex="1" parent="1">
          <mxGeometry x="200" y="480" width="80" height="40" as="geometry" />
        </mxCell>
        <mxCell id="p68j98JTXO-RYFuw1W3W-15" value="" style="endArrow=none;dashed=1;html=1;rounded=0;fontSize=22;" edge="1" parent="1">
          <mxGeometry width="50" height="50" relative="1" as="geometry">
            <mxPoint x="40" y="320" as="sourcePoint" />
            <mxPoint x="280" y="320" as="targetPoint" />
          </mxGeometry>
        </mxCell>
        <mxCell id="p68j98JTXO-RYFuw1W3W-16" value="" style="endArrow=none;dashed=1;html=1;rounded=0;fontSize=22;" edge="1" parent="1">
          <mxGeometry width="50" height="50" relative="1" as="geometry">
            <mxPoint x="40" y="360" as="sourcePoint" />
            <mxPoint x="280" y="360" as="targetPoint" />
          </mxGeometry>
        </mxCell>
        <mxCell id="p68j98JTXO-RYFuw1W3W-17" value="" style="endArrow=none;dashed=1;html=1;rounded=0;fontSize=22;" edge="1" parent="1">
          <mxGeometry width="50" height="50" relative="1" as="geometry">
            <mxPoint x="40" y="399" as="sourcePoint" />
            <mxPoint x="280" y="399" as="targetPoint" />
          </mxGeometry>
        </mxCell>
        <mxCell id="p68j98JTXO-RYFuw1W3W-18" value="" style="endArrow=none;dashed=1;html=1;rounded=0;fontSize=22;" edge="1" parent="1">
          <mxGeometry width="50" height="50" relative="1" as="geometry">
            <mxPoint x="40" y="440" as="sourcePoint" />
            <mxPoint x="280" y="440" as="targetPoint" />
          </mxGeometry>
        </mxCell>
        <mxCell id="p68j98JTXO-RYFuw1W3W-19" value="" style="endArrow=none;dashed=1;html=1;rounded=0;fontSize=22;" edge="1" parent="1">
          <mxGeometry width="50" height="50" relative="1" as="geometry">
            <mxPoint x="40" y="480" as="sourcePoint" />
            <mxPoint x="280" y="480" as="targetPoint" />
          </mxGeometry>
        </mxCell>
        <mxCell id="p68j98JTXO-RYFuw1W3W-20" value="" style="endArrow=none;dashed=1;html=1;rounded=0;fontSize=22;" edge="1" parent="1">
          <mxGeometry width="50" height="50" relative="1" as="geometry">
            <mxPoint x="40" y="520" as="sourcePoint" />
            <mxPoint x="280" y="520" as="targetPoint" />
          </mxGeometry>
        </mxCell>
        <mxCell id="p68j98JTXO-RYFuw1W3W-21" value="一个长一些的键值对: 一个长一些的键值对 " style="text;html=1;align=center;verticalAlign=middle;resizable=0;points=[];autosize=1;strokeColor=none;fillColor=none;fontSize=22;fontStyle=1" vertex="1" parent="1">
          <mxGeometry x="115" y="520" width="430" height="40" as="geometry" />
        </mxCell>
      </root>
    </mxGraphModel>
  </diagram>
</mxfile>
